<svg id="Vambe_Logo_White" xmlns="http://www.w3.org/2000/svg" height="40" viewBox="0 0 117 40" class="h-8 w-auto" style="width:auto" data-fc-idx="0"><path d="M42.04027,16.41684h8.49695v2.072l-4.43236.71661c-1.2723.19582-2.33362.52836-3.18489.99808-.85127.46956-1.48233,1.05215-1.8933,1.74652-.41097.69478-.61643,1.49246-.61643,2.39233,0,.95896.22473,1.7859.67516,2.48027.44995.69491,1.09569,1.22827,1.93734,1.59978.84115.37153,1.83915.55777,2.99406.55777.86085,0,1.64377-.11289,2.34831-.33754.70449-.2248,1.34013-.56735,1.90794-1.02747.30821-.2496.6008-.53883.88026-.86092l.85162,1.87369h2.93535V12.6009h-11.5947l-1.30528,3.81595ZM50.08228,24.0047c-.30363.53849-.72931.96408-1.27689,1.27694-.54811.31329-1.18423.46972-1.90799.46972-.54813,0-1.00813-.13674-1.37965-.41104-.37193-.27376-.55769-.65541-.55769-1.14479,0-.52838.16599-.93429.49896-1.21816.33254-.28346.81182-.48427,1.43838-.60173l3.63982-.52877v.38206c0,.64568-.15178,1.23784-.45494,1.77578Z" fill="#fff" style="fill: rgb(255, 255, 255) !important;"/><path d="M78.33953,13.0118c-.89066-.5086-1.91299-.76315-3.06742-.76315-1.31128,0-2.45607.31322-3.43437.93928-.58604.37513-1.08941.87557-1.51383,1.49599-.33172-.552-.78829-1.02784-1.37746-1.42255-1.00813-.67516-2.17726-1.01271-3.50781-1.01271-1.25253,0-2.32904.29352-3.22891.88062-.59628.38879-1.18704.78252-1.58924,1.35936l-.84705-1.88774h-2.93541v16.02706h4.40304v-9.36384c0-.62599.11241-1.16406.33762-1.61442.22473-.44995.54763-.80219.96866-1.05673.42055-.25404.91451-.38157,1.48235-.38157.58709,0,1.08612.12753,1.49702.38157.41097.25454.72882.60679.95404,1.05673.22473.45036.33755.98843.33755,1.61442v9.36384h4.40304v-9.36384c0-.62599.11239-1.16406.33754-1.61442.22473-.44995.54765-.80219.96868-1.05673.4206-.25404.91458-.38157,1.4824-.38157.58702,0,1.08606.12753,1.49704.38157.4109.25454.72876.60679.95397,1.05673.22471.45036.33754.98843.33754,1.61442v9.36384h4.40304v-10.30311c0-1.21316-.25454-2.27494-.76315-3.18489-.50909-.90993-1.20858-1.619-2.09883-2.12816Z" fill="#fff" style="fill: rgb(255, 255, 255) !important;"/><path d="M95.93539,13.36404c-1.23285-.74345-2.61248-1.11539-4.13885-1.11539-1.17412,0-2.21622.22017-3.12617.66047-.56868.27514-1.06278.62103-1.4824,1.03755v-7.01944l-4.40304,2.52442v19.17631h2.93541l.79415-1.98547c.5637.76267,1.3012,1.34211,2.21453,1.73599.92929.40078,1.94199.60173,3.03818.60173,1.56532,0,2.96466-.37152,4.19751-1.11539,1.23285-.74345,2.20611-1.75124,2.92071-3.02347.71413-1.2718,1.07143-2.68078,1.07143-4.2269,0-1.56541-.36235-2.97943-1.08612-4.24163-.72419-1.26218-1.7025-2.26482-2.93535-3.00876ZM94.87866,22.904c-.35223.66553-.84163,1.18418-1.46769,1.5557-.62649.37208-1.35025.55777-2.17213.55777-.78297,0-1.4824-.18569-2.09883-.55777-.61642-.37152-1.09617-.89016-1.43829-1.5557-.3426-.66509-.51374-1.42823-.51374-2.28957,0-.86092.17114-1.62407.51374-2.28958.34212-.66503.82188-1.18377,1.43829-1.55576.61643-.37152,1.31586-.55771,2.09883-.55771.82188,0,1.54564.19075,2.17213.5724.62606.38157,1.11546.90031,1.46769,1.55576.35224.65582.52838,1.41397.52838,2.27489,0,.86133-.17613,1.62448-.52838,2.28957Z" fill="#fff" style="fill: rgb(255, 255, 255) !important;"/><path d="M116.18908,17.04797c-.35224-.94898-.8659-1.78556-1.54106-2.50973-.67516-.72376-1.5021-1.28651-2.4804-1.68786-.97872-.40085-2.10382-.60173-3.37563-.60173-1.52643,0-2.89637.3623-4.10954,1.08606-1.21358.72417-2.17717,1.71261-2.89131,2.96474-.7146,1.25253-1.07143,2.6812-1.07143,4.28558,0,1.54612.34219,2.95508,1.02741,4.2269.68472,1.27237,1.6534,2.285,2.906,3.03818,1.25214.75357,2.72988,1.13008,4.43236,1.13008,1.09571,0,2.10341-.16142,3.02347-.48441.91958-.32285,1.71719-.77784,2.39228-1.36487.67514-.58702,1.16913-1.27182,1.4824-2.05479l-3.52243-1.67315c-.31327.5482-.74851.97879-1.30628,1.29164-.55769.31327-1.22827.46956-2.01069.46956-.86133,0-1.59522-.19082-2.20153-.57233-.60679-.38164-1.05673-.91458-1.35032-1.59978-.15121-.35281-.2522-.73478-.30475-1.14479h11.22435c.07795-.21509.13209-.47428.16142-.77786.02933-.30314.04404-.61142.04404-.92471,0-1.11538-.17613-2.14743-.52838-3.09675ZM106.82526,16.32879c.54763-.37152,1.20352-.55771,1.96674-.55771.78242,0,1.44287.19075,1.98136.5724.538.38157.91451.90031,1.13008,1.55576.07486.22826.12321.46848.14832.7192h-6.64676c.05055-.22645.11086-.44375.18739-.64583.27383-.72376.6848-1.27182,1.23287-1.64382Z" fill="#fff" style="fill: rgb(255, 255, 255) !important;"/><polygon points="36.38274 12.6009 33.12138 22.75872 29.85997 12.6009 24.99379 12.6009 30.47955 28.62796 35.76321 28.62796 41.24897 12.6009 36.38274 12.6009" fill="#fff" style="fill: rgb(255, 255, 255) !important;"/><path d="M10.79867,11.20487C7.26065,11.20487.28254,18.18298.28254,21.72099s6.97811,8.29383,10.51613,8.29383,10.51613-4.7558,10.51613-8.29383-6.97809-10.51613-10.51613-10.51613ZM10.79867,26.77909c-1.76901,0-7.28039-3.28909-7.28039-5.0581s5.51138-7.28039,7.28039-7.28039,7.28039,5.51138,7.28039,7.28039-5.51138,5.0581-7.28039,5.0581Z" fill="#fff" style="fill: rgb(255, 255, 255) !important;"/></svg>